<svg id="Layer_1" data-name="Layer 1" xmlns="http://www.w3.org/2000/svg" viewBox="0 0 430.49 436.21"><defs><style>.cls-1{fill:#f7e034;}.cls-2{fill:#fff;}.cls-3,.cls-4,.cls-5{fill:none;stroke:#000;stroke-linecap:round;stroke-miterlimit:10;}.cls-3{stroke-width:10.84px;}.cls-4{stroke-width:3.61px;}.cls-5{stroke-width:7.23px;}.cls-6{font-size:110.24px;font-family:BadaBoomBB, BadaBoom BB;}</style></defs><path class="cls-1" d="M478.92,186.28c8.5,90.54-71,171.92-177.8,171.86s-186.3-81.32-177.8-171.86c8.46-90.77,88-157.7,177.8-157.88C390.93,28.58,470.45,95.51,478.92,186.28Z" transform="translate(-100.94 -28.4)"/><path class="cls-2" d="M385.77,193.27H206.12a13.45,13.45,0,0,1-12.94-9.76L162.71,77.14a8.31,8.31,0,0,1,8-10.6H401" transform="translate(-100.94 -28.4)"/><circle class="cls-2" cx="221.99" cy="276.59" r="34.14" transform="translate(-187.83 422.45) rotate(-80.68)"/><circle class="cls-2" cx="346.09" cy="276.59" r="34.14" transform="translate(-82.91 545.93) rotate(-80.86)"/><circle class="cls-2" cx="245.15" cy="248.18" r="4.94"/><circle class="cls-3" cx="137.1" cy="255.45" r="34.14"/><path class="cls-3" d="M232.12,249.71H365.87a34.32,34.32,0,0,0,32.46-23.16L453.45,66.18A34.32,34.32,0,0,1,485.9,43H526" transform="translate(-100.94 -28.4)"/><circle class="cls-4" cx="137.1" cy="255.45" r="4.94"/><circle class="cls-3" cx="261.2" cy="255.45" r="34.14"/><circle class="cls-4" cx="261.2" cy="255.45" r="4.94"/><path class="cls-3" d="M405.2,206.55H225.55a13.45,13.45,0,0,1-12.94-9.76L182.14,90.41a8.3,8.3,0,0,1,8-10.59h230.3" transform="translate(-100.94 -28.4)"/><line class="cls-5" x1="123.02" y1="82.18" x2="337.25" y2="82.18"/><line class="cls-5" x1="141.3" y1="127.7" x2="321.6" y2="127.7"/><path class="cls-5" d="M146.89,339.3s131.28-44.42,308.45,0" transform="translate(-100.94 -28.4)"/><text class="cls-6" transform="translate(12.68 416.29)">AZOL Mart</text></svg>